<?xml version="1.0" encoding="UTF-8" standalone="no"?>
<svg
   xmlns:dc="http://purl.org/dc/elements/1.1/"
   xmlns:cc="http://creativecommons.org/ns#"
   xmlns:rdf="http://www.w3.org/1999/02/22-rdf-syntax-ns#"
   xmlns:svg="http://www.w3.org/2000/svg"
   xmlns="http://www.w3.org/2000/svg"
   xmlns:sodipodi="http://sodipodi.sourceforge.net/DTD/sodipodi-0.dtd"
   xmlns:inkscape="http://www.inkscape.org/namespaces/inkscape"
   viewBox="0 0 128 128"
   style="display:inline;enable-background:new"
   version="1.0"
   id="svg11300"
   height="128"
   width="128"
   sodipodi:docname="org.gnome.Extensions.svg"
   inkscape:version="1.0.2 (e86c870879, 2021-01-15)">
  <sodipodi:namedview
     pagecolor="#ffffff"
     bordercolor="#666666"
     borderopacity="1"
     objecttolerance="10"
     gridtolerance="10"
     guidetolerance="10"
     inkscape:pageopacity="0"
     inkscape:pageshadow="2"
     inkscape:window-width="1335"
     inkscape:window-height="749"
     id="namedview18"
     showgrid="false"
     inkscape:zoom="0.5"
     inkscape:cx="55.939495"
     inkscape:cy="72.303315"
     inkscape:window-x="35"
     inkscape:window-y="215"
     inkscape:window-maximized="0"
     inkscape:current-layer="g997"
     inkscape:document-rotation="0"
     inkscape:snap-bbox="true"
     inkscape:bbox-paths="true"
     inkscape:bbox-nodes="true"
     inkscape:snap-bbox-edge-midpoints="true"
     inkscape:snap-bbox-midpoints="true" />
  <title
     id="title4162">Adwaita Icon Template</title>
  <defs
     id="defs3" />
  <metadata
     id="metadata4">
    <rdf:RDF>
      <cc:Work
         rdf:about="">
        <dc:format>image/svg+xml</dc:format>
        <dc:type
           rdf:resource="http://purl.org/dc/dcmitype/StillImage" />
        <dc:creator>
          <cc:Agent>
            <dc:title>GNOME Design Team</dc:title>
          </cc:Agent>
        </dc:creator>
        <dc:source />
        <cc:license
           rdf:resource="http://creativecommons.org/licenses/by-sa/4.0/" />
        <dc:title>Adwaita Icon Template</dc:title>
        <dc:subject>
          <rdf:Bag />
        </dc:subject>
        <dc:date />
        <dc:rights>
          <cc:Agent>
            <dc:title />
          </cc:Agent>
        </dc:rights>
        <dc:publisher>
          <cc:Agent>
            <dc:title />
          </cc:Agent>
        </dc:publisher>
        <dc:identifier />
        <dc:relation />
        <dc:language />
        <dc:coverage />
        <dc:description />
        <dc:contributor>
          <cc:Agent>
            <dc:title />
          </cc:Agent>
        </dc:contributor>
      </cc:Work>
      <cc:License
         rdf:about="http://creativecommons.org/licenses/by-sa/4.0/">
        <cc:permits
           rdf:resource="http://creativecommons.org/ns#Reproduction" />
        <cc:permits
           rdf:resource="http://creativecommons.org/ns#Distribution" />
        <cc:requires
           rdf:resource="http://creativecommons.org/ns#Notice" />
        <cc:requires
           rdf:resource="http://creativecommons.org/ns#Attribution" />
        <cc:permits
           rdf:resource="http://creativecommons.org/ns#DerivativeWorks" />
        <cc:requires
           rdf:resource="http://creativecommons.org/ns#ShareAlike" />
      </cc:License>
    </rdf:RDF>
  </metadata>
  <g
     transform="translate(0,-172)"
     style="display:inline"
     id="layer1">
    <g
       style="display:inline"
       id="layer9">
      <g
         transform="translate(-220)"
         id="g997">
        <path
           style="fill:#33d17a;stroke-width:4.90909"
           d="m 247.57259,198.57399 1.76676,13.81715 c 0.36911,3.14228 1.00511,7.25289 0.94793,10.41208 -0.0303,1.57918 -0.29461,3.18881 -1.07358,4.57598 -0.38905,0.6902 -0.9072,1.3212 -1.54666,1.80417 -0.63947,0.48551 -1.4011,0.82215 -2.20346,0.92196 -1.30319,0.16494 -2.59598,-0.29096 -3.79432,-0.81285 -1.19488,-0.52526 -2.38283,-1.1368 -3.67908,-1.31527 -1.2694,-0.17761 -2.58558,0.0795 -3.71981,0.65721 -1.13335,0.58194 -2.08475,1.47683 -2.7788,2.5282 -1.38723,2.10106 -1.7087,6.42499 -1.36384,8.90329 0.25995,1.87692 0.9098,3.74959 2.1766,5.18751 0.63253,0.71643 1.41496,1.31781 2.30137,1.70097 0.88641,0.38659 1.87853,0.55572 2.84293,0.43986 1.33438,-0.16249 3.51824,-0.84584 4.72958,-1.41761 0.61,-0.28419 1.23214,-0.54472 1.88546,-0.70037 0.65333,-0.15572 1.34391,-0.20127 2.00071,-0.0558 0.71051,0.15478 1.35691,0.53118 1.87506,1.03024 0.52076,0.49567 0.90981,1.11057 1.19141,1.76441 0.55455,1.31189 0.66026,2.75573 0.72785,4.17334 0.412,8.4945 -0.24273,16.00892 -1.94959,24.34811 5.89299,2.03418 10.716,3.59847 16.86806,4.67748 2.03796,0.36121 4.15304,0.66146 6.16068,0.16583 1.00512,-0.24786 1.96691,-0.70034 2.73115,-1.38123 0.7651,-0.68005 1.32398,-1.59866 1.48255,-2.60012 -0.0571,-3.79301 -2.71411,-7.42035 -3.10029,-11.09438 -0.25994,-1.31781 -0.0199,-2.71261 0.58574,-3.91876 0.60914,-1.20532 1.57353,-2.2237 2.70342,-2.99006 2.26498,-1.52588 5.11224,-2.01561 7.86332,-2.03844 2.52146,-0.0191 5.12925,0.35021 7.27119,1.65192 1.0701,0.65129 2.00417,1.53012 2.6341,2.59673 0.63253,1.06404 0.95053,2.32011 0.82576,3.54236 -0.78713,5.12602 -2.68307,7.39025 -3.24324,10.79623 -0.1352,0.93887 -0.0167,1.45866 0.48089,2.27066 0.35527,0.57856 0.88382,1.04038 1.46955,1.3948 0.58488,0.35694 1.22868,0.61069 1.87854,0.83906 4.21471,1.46623 8.98885,1.61627 13.40071,0.8888 4.40997,-0.73882 8.55138,-2.57174 12.02675,-5.32283 l -2.24158,-16.3847 c -0.39253,-2.88093 -0.98779,-4.29054 -0.9072,-7.19428 0.0373,-1.45398 0.29459,-2.92744 0.98865,-4.21226 0.34064,-0.64904 0.80464,-1.22889 1.36731,-1.70861 0.56108,-0.48246 1.23361,-0.82492 1.95997,-0.99807 0.69319,-0.15479 1.41843,-0.13873 2.11509,-0.0167 0.70098,0.12267 1.3777,0.34677 2.03796,0.59885 1.32312,0.50494 2.61937,1.1334 4.0274,1.31778 1.29972,0.17182 2.6471,-0.0524 3.83505,-0.59123 1.19141,-0.54132 2.22339,-1.39393 3.00582,-2.4216 1.5666,-2.05878 2.09515,-5.96549 1.77368,-8.50723 -0.26425,-2.0706 -1.09003,-4.11245 -2.55871,-5.62904 -0.73478,-0.75702 -1.62465,-1.37871 -2.61331,-1.77456 -0.98779,-0.40009 -2.07522,-0.57855 -3.13753,-0.47618 -1.41843,0.13279 -2.73201,0.7401 -4.06206,1.23577 -0.66286,0.25119 -1.34305,0.47284 -2.04056,0.598 -0.70099,0.12602 -1.42883,0.14884 -2.12288,-0.003 -1.05191,-0.22842 -1.98944,-0.8518 -2.66963,-1.66802 -0.68105,-0.81624 -2.0979,-1.8101 -2.32405,-2.84202 -0.45404,-2.05542 -0.10829,-5.17133 0.19931,-7.25293 1.02901,-6.98205 1.60781,-13.30295 1.73296,-20.35582 -6.29129,-1.9718 -11.77812,-3.35033 -18.33892,-4.11669 -2.01804,-0.23768 -4.11578,-0.406 -6.03937,0.23175 -0.96439,0.31973 -1.86467,0.84584 -2.54139,1.58595 -0.67672,0.73587 -1.1169,1.70097 -1.13682,2.69229 -0.0177,0.69697 0.17241,1.3914 0.47049,2.02578 2.54774,3.96424 4.07519,7.44738 3.11979,11.96084 -0.51382,1.44723 -1.51287,2.7126 -2.75107,3.65402 -1.24254,0.94226 -2.71816,1.56649 -4.24836,1.91413 -1.52934,0.34679 -3.11327,0.42291 -4.6842,0.33325 -2.52843,-0.14558 -5.10707,-0.75288 -7.13118,-2.24324 -1.01204,-0.74434 -1.86899,-1.70521 -2.41747,-2.81833 -0.54762,-1.11397 -0.78504,-2.38526 -0.59788,-3.60834 0.25648,-1.66207 1.736,-5.34048 2.56869,-6.81055 0.41589,-0.73672 0.80149,-1.49712 1.03891,-2.30321 0.24,-0.80608 0.32841,-1.67137 0.14555,-2.49098 -0.18976,-0.85935 -0.67065,-1.64175 -1.31012,-2.26006 -0.63946,-0.61426 -1.43142,-1.06678 -2.27797,-1.3679 -1.68878,-0.60055 -3.53351,-0.59801 -5.32713,-0.49566 -6.70175,0.3854 -13.25733,2.07252 -19.28266,4.96252 z"
           id="path4" />
      </g>
    </g>
  </g>
</svg>
