<?xml version="1.0" encoding="UTF-8" standalone="no"?>
<svg
   xmlns:dc="http://purl.org/dc/elements/1.1/"
   xmlns:cc="http://creativecommons.org/ns#"
   xmlns:rdf="http://www.w3.org/1999/02/22-rdf-syntax-ns#"
   xmlns:svg="http://www.w3.org/2000/svg"
   xmlns="http://www.w3.org/2000/svg"
   xmlns:sodipodi="http://sodipodi.sourceforge.net/DTD/sodipodi-0.dtd"
   xmlns:inkscape="http://www.inkscape.org/namespaces/inkscape"
   viewBox="0 0 128 128"
   style="display:inline;enable-background:new"
   version="1.0"
   id="svg11300"
   height="128"
   width="128"
   sodipodi:docname="preferences-wifi.svg"
   inkscape:version="1.0.2 (e86c870879, 2021-01-15)">
  <sodipodi:namedview
     pagecolor="#ffffff"
     bordercolor="#666666"
     borderopacity="1"
     objecttolerance="10"
     gridtolerance="10"
     guidetolerance="10"
     inkscape:pageopacity="0"
     inkscape:pageshadow="2"
     inkscape:window-width="1920"
     inkscape:window-height="1011"
     id="namedview18"
     showgrid="false"
     inkscape:zoom="2.0000001"
     inkscape:cx="132.1256"
     inkscape:cy="94.05433"
     inkscape:window-x="0"
     inkscape:window-y="32"
     inkscape:window-maximized="1"
     inkscape:current-layer="g997"
     inkscape:document-rotation="0" />
  <title
     id="title4162">Adwaita Icon Template</title>
  <defs
     id="defs3" />
  <metadata
     id="metadata4">
    <rdf:RDF>
      <cc:Work
         rdf:about="">
        <dc:format>image/svg+xml</dc:format>
        <dc:type
           rdf:resource="http://purl.org/dc/dcmitype/StillImage" />
        <dc:creator>
          <cc:Agent>
            <dc:title>GNOME Design Team</dc:title>
          </cc:Agent>
        </dc:creator>
        <dc:source />
        <cc:license
           rdf:resource="http://creativecommons.org/licenses/by-sa/4.0/" />
        <dc:title>Adwaita Icon Template</dc:title>
        <dc:subject>
          <rdf:Bag />
        </dc:subject>
        <dc:date />
        <dc:rights>
          <cc:Agent>
            <dc:title />
          </cc:Agent>
        </dc:rights>
        <dc:publisher>
          <cc:Agent>
            <dc:title />
          </cc:Agent>
        </dc:publisher>
        <dc:identifier />
        <dc:relation />
        <dc:language />
        <dc:coverage />
        <dc:description />
        <dc:contributor>
          <cc:Agent>
            <dc:title />
          </cc:Agent>
        </dc:contributor>
      </cc:Work>
      <cc:License
         rdf:about="http://creativecommons.org/licenses/by-sa/4.0/">
        <cc:permits
           rdf:resource="http://creativecommons.org/ns#Reproduction" />
        <cc:permits
           rdf:resource="http://creativecommons.org/ns#Distribution" />
        <cc:requires
           rdf:resource="http://creativecommons.org/ns#Notice" />
        <cc:requires
           rdf:resource="http://creativecommons.org/ns#Attribution" />
        <cc:permits
           rdf:resource="http://creativecommons.org/ns#DerivativeWorks" />
        <cc:requires
           rdf:resource="http://creativecommons.org/ns#ShareAlike" />
      </cc:License>
    </rdf:RDF>
  </metadata>
  <g
     transform="translate(0,-172)"
     style="display:inline"
     id="layer1">
    <g
       style="display:inline"
       id="layer9">
      <g
         transform="translate(-220)"
         id="g997">
        <g
           id="g10"
           transform="matrix(0.37222096,0,0,0.40376521,224.81426,171.99998)">
          <path
             style="fill:#61b4e4"
             d="M 22.21,134.341 0,112.131 C 42.401,69.728 98.694,46.376 158.509,46.376 c 59.813,0 116.105,23.351 158.507,65.751 l -22.21,22.21 C 258.337,97.869 209.932,77.785 158.509,77.785 c -51.425,0 -99.83,20.085 -136.299,56.556 z"
             id="path2" />
          <path
             style="fill:#005cb9"
             d="m 63.944,176.075 -22.211,-22.21 c 31.237,-31.237 72.709,-48.439 116.775,-48.439 44.067,0 85.537,17.201 116.774,48.437 l -22.21,22.21 c -25.304,-25.303 -58.888,-39.238 -94.564,-39.238 -35.676,0 -69.26,13.935 -94.564,39.24 z"
             id="path4" />
          <path
             style="fill:#005cb9"
             d="m 105.679,217.811 -22.211,-22.21 c 20.072,-20.071 46.723,-31.125 75.041,-31.125 28.318,0 54.967,11.053 75.039,31.123 l -22.211,22.21 c -14.138,-14.137 -32.898,-21.923 -52.828,-21.923 -19.929,-0.001 -38.692,7.786 -52.83,21.925 z"
             id="path6" />
          <path
             style="fill:#005cb9"
             d="m 158.509,224.154 c -12.836,0 -24.457,5.204 -32.871,13.615 l 32.871,32.871 32.871,-32.871 c -8.413,-8.412 -20.035,-13.615 -32.871,-13.615 z"
             id="path8" />
        </g>
      </g>
    </g>
  </g>
</svg>
