<?xml version="1.0" encoding="UTF-8" standalone="no"?>
<svg
   xmlns:dc="http://purl.org/dc/elements/1.1/"
   xmlns:cc="http://creativecommons.org/ns#"
   xmlns:rdf="http://www.w3.org/1999/02/22-rdf-syntax-ns#"
   xmlns:svg="http://www.w3.org/2000/svg"
   xmlns="http://www.w3.org/2000/svg"
   xmlns:sodipodi="http://sodipodi.sourceforge.net/DTD/sodipodi-0.dtd"
   xmlns:inkscape="http://www.inkscape.org/namespaces/inkscape"
   width="128.0px"
   height="128.0px"
   viewBox="0 0 128.0 128.0"
   version="1.1"
   id="SVGRoot"
   sodipodi:docname="emblem-symbolic-link.svg"
   inkscape:version="1.0.1 (3bc2e813f5, 2020-09-07)">
  <defs
     id="defs870" />
  <sodipodi:namedview
     id="base"
     pagecolor="#ffffff"
     bordercolor="#666666"
     borderopacity="1.0"
     inkscape:pageopacity="0.0"
     inkscape:pageshadow="2"
     inkscape:zoom="2.8"
     inkscape:cx="80.030483"
     inkscape:cy="115.41556"
     inkscape:document-units="px"
     inkscape:current-layer="layer1"
     inkscape:document-rotation="0"
     showgrid="true"
     inkscape:window-width="1533"
     inkscape:window-height="1016"
     inkscape:window-x="0"
     inkscape:window-y="27"
     inkscape:window-maximized="0">
    <inkscape:grid
       type="xygrid"
       id="grid1440" />
  </sodipodi:namedview>
  <metadata
     id="metadata873">
    <rdf:RDF>
      <cc:Work
         rdf:about="">
        <dc:format>image/svg+xml</dc:format>
        <dc:type
           rdf:resource="http://purl.org/dc/dcmitype/StillImage" />
        <dc:title></dc:title>
      </cc:Work>
    </rdf:RDF>
  </metadata>
  <g
     inkscape:label="Layer 1"
     inkscape:groupmode="layer"
     id="layer1">
    <g
       id="Page-1"
       stroke="none"
       stroke-width="1"
       fill="none"
       fill-rule="evenodd"
       transform="scale(5.3333333)">
      <g
         id="脚标-链接">
        <g
           id="Group"
           transform="translate(2,1)">
          <path
             d="M 19.5,10.5 C 19.5,15.747167 15.247167,20 10,20 4.7528333,20 0.5,15.747167 0.5,10.5 0.5,5.2528333 4.7528333,1 10,1 c 5.247167,0 9.5,4.2528333 9.5,9.5"
             id="Fill-4"
             fill="#000000"
             opacity="0.110075" />
          <path
             d="m 18.964,9.9975 c 0,4.971 -4.029,9 -9,9 -4.971,0 -9,-4.029 -9,-9 0,-4.971 4.029,-9 9,-9 4.971,0 9,4.029 9,9"
             id="path9"
             fill="#ffffff" />
          <path
             d="m 11,11.000579 v 2.996948 c 0,0.546712 0.323856,0.68909 0.723353,0.302512 l 5.116511,-4.9510523 c 0.194302,-0.1880184 0.198898,-0.5045411 0,-0.697039 L 11.723353,3.7000768 C 11.315983,3.305815 11,3.4488226 11,4.0024733 V 7 c -3.16e-4,-2.26e-5 -7,-0.4998081 -7,8 0.9999774,-4.016438 6.999729,-3.999422 7,-3.999421 z"
             id="Combined-Shape"
             fill="#51a2ff" />
        </g>
      </g>
    </g>
  </g>
</svg>
